<svg width="40" height="40" viewBox="0 0 40 40" fill="none" xmlns="http://www.w3.org/2000/svg">
<path d="M25.9184 21.6603L22.5684 25.0217C21.2099 26.385 18.8195 26.4143 17.4317 25.0217L14.0814 21.6603L2.04892 33.7318C2.49681 33.9389 2.99064 34.0625 3.51564 34.0625H36.4844C37.0094 34.0625 37.503 33.9391 37.9508 33.7319L25.9184 21.6603Z" fill="white"/>
<path d="M36.4844 5.9375H3.51563C2.99063 5.9375 2.49681 6.06109 2.04907 6.2682L14.9067 19.1684C14.9075 19.1693 14.9085 19.1695 14.9094 19.1703C14.9102 19.1712 14.9104 19.1723 14.9104 19.1723L19.0911 23.3669C19.5352 23.8109 20.465 23.8109 20.9091 23.3669L25.0889 19.173C25.0889 19.173 25.0899 19.1712 25.0908 19.1703C25.0908 19.1703 25.0927 19.1693 25.0935 19.1684L37.9508 6.26813C37.5031 6.06094 37.0094 5.9375 36.4844 5.9375Z" fill="white"/>
<path d="M0.373906 7.90723C0.142187 8.37582 0 8.89598 0 9.45316V30.5469C0 31.1041 0.142031 31.6242 0.373828 32.0928L12.4272 20.0004L0.373906 7.90723Z" fill="white"/>
<path d="M39.6261 7.90698L27.5729 20.0003L39.6261 32.0929C39.8578 31.6243 40 31.1042 40 30.5468V9.45308C40 8.89573 39.8578 8.37558 39.6261 7.90698Z" fill="white"/>
</svg>
