<svg width="46" height="46" viewBox="0 0 46 46" fill="none" xmlns="http://www.w3.org/2000/svg">
<g clip-path="url(#clip0_32_165)">
<path d="M23 0C10.3179 0 0 10.3179 0 23C0 35.6812 10.3179 46 23 46C35.6812 46 46 35.6812 46 23C46 10.3179 35.6831 0 23 0ZM28.7199 23.8097H24.978V37.1469H19.4332C19.4332 37.1469 19.4332 29.8594 19.4332 23.8097H16.7974V19.0959H19.4332V16.047C19.4332 13.8634 20.4708 10.4513 25.0289 10.4513L29.1377 10.467V15.0427C29.1377 15.0427 26.6409 15.0427 26.1555 15.0427C25.67 15.0427 24.9798 15.2855 24.9798 16.3268V19.0969H29.2044L28.7199 23.8097Z" fill="white"/>
</g>
<defs>
<clipPath id="clip0_32_165">
<rect width="46" height="46" fill="white"/>
</clipPath>
</defs>
</svg>
