<svg width="48" height="48" viewBox="0 0 48 48" fill="none" xmlns="http://www.w3.org/2000/svg">
<g clip-path="url(#clip0_15_136)">
<path d="M43.2246 22.6794L43.2326 18.7225L29.3075 18.694L29.2995 22.6509L43.2246 22.6794Z" fill="white"/>
<path d="M43.2114 29.2742L43.2194 25.3173L29.2943 25.2889L29.2863 29.2458L43.2114 29.2742Z" fill="white"/>
<path d="M18.6511 22.6292L18.6591 18.6723L4.73397 18.6438L4.72598 22.6007L18.6511 22.6292Z" fill="white"/>
<path d="M18.6376 29.2241L18.6456 25.2672L4.72054 25.2387L4.71255 29.1956L18.6376 29.2241Z" fill="white"/>
<path d="M22.7333 29.2338L18.8015 29.2243L18.7681 43.2384L22.6999 43.2479L22.7333 29.2338Z" fill="white"/>
<path d="M29.2863 29.2496L25.3545 29.2401L25.3211 43.2542L29.2529 43.2637L29.2863 29.2496Z" fill="white"/>
<path d="M22.619 4.66766L18.6872 4.65817L18.6538 18.6722L22.5856 18.6817L22.619 4.66766Z" fill="white"/>
<path d="M29.172 4.68347L25.2402 4.67398L25.2068 18.688L29.1386 18.6975L29.172 4.68347Z" fill="white"/>
<path d="M4.71258 29.1955L4.68428 43.2097L0.0971985 43.2001L0.125494 29.1861L4.71258 29.1955Z" fill="white"/>
<path d="M18.7639 47.8548L0.0878906 47.8166L0.0972116 43.2001L18.7732 43.2383L18.7639 47.8548Z" fill="white"/>
<path d="M29.2593 43.2138L43.1845 43.2423L43.175 47.8586L29.25 47.8302L29.2593 43.2138Z" fill="white"/>
<path d="M47.8001 29.0727L47.7621 47.868L43.175 47.8586L43.213 29.0633L47.8001 29.0727Z" fill="white"/>
<path d="M43.2326 18.7225L43.2609 4.70844L47.8481 4.71782L47.8197 18.732L43.2326 18.7225Z" fill="white"/>
<path d="M29.1814 0.0632324L47.8574 0.101428L47.8481 4.71782L29.1721 4.67964L29.1814 0.0632324Z" fill="white"/>
<path d="M18.6873 4.65817L4.76221 4.62971L4.77153 0.0133057L18.6965 0.0417829L18.6873 4.65817Z" fill="white"/>
<path d="M0.146484 18.7993L0.184437 0.00393677L4.77152 0.0133175L4.73358 18.8086L0.146484 18.7993Z" fill="white"/>
<path d="M22.5377 25.5394C23.3526 26.3369 24.6557 26.3186 25.4481 25.4985C26.2406 24.6783 26.2223 23.367 25.4074 22.5695C24.5925 21.772 23.2895 21.7903 22.497 22.6104C21.7046 23.4305 21.7228 24.7419 22.5377 25.5394Z" fill="white"/>
</g>
<defs>
<clipPath id="clip0_15_136">
<rect width="48" height="48" fill="white"/>
</clipPath>
</defs>
</svg>
