<svg width="86" height="86" viewBox="0 0 86 86" fill="none" xmlns="http://www.w3.org/2000/svg">
<g clip-path="url(#clip0_15_371)">
<path d="M58.8251 24.8404L55.3347 21.3359L43.0013 33.6189L46.4917 37.1234L58.8251 24.8404Z" fill="#FF9100"/>
<path d="M64.6424 30.6812L61.152 27.1767L48.8187 39.4597L52.3091 42.9642L64.6424 30.6812Z" fill="#FF9100"/>
<path d="M37.0605 46.5162L33.5702 43.0117L21.2368 55.2947L24.7272 58.7992L37.0605 46.5162Z" fill="#FF9100"/>
<path d="M42.8778 52.3572L39.3874 48.8527L27.0541 61.1357L30.5445 64.6402L42.8778 52.3572Z" fill="#FF9100"/>
<path d="M46.5065 48.7457L43.0229 52.2125L55.3801 64.6288L58.8638 61.162L46.5065 48.7457Z" fill="#FF9100"/>
<path d="M52.3125 42.9676L48.8289 46.4344L61.1862 58.8508L64.6698 55.3839L52.3125 42.9676Z" fill="#FF9100"/>
<path d="M24.6918 27.1331L21.2082 30.6L33.5655 43.0163L37.0491 39.5494L24.6918 27.1331Z" fill="#FF9100"/>
<path d="M30.4979 21.355L27.0143 24.8218L39.3716 37.2381L42.8552 33.7713L30.4979 21.355Z" fill="#FF9100"/>
<path d="M30.5444 64.6401L42.9063 77.0519L38.8434 81.098L26.4817 68.6862L30.5444 64.6401Z" fill="#D46363"/>
<path d="M59.4568 68.7129L42.9156 85.1866L38.8434 81.098L55.3846 64.6243L59.4568 68.7129Z" fill="#D46363"/>
<path d="M64.6314 55.3342L76.9648 43.0512L81.0367 47.1398L68.7035 59.4228L64.6314 55.3342Z" fill="#D46363"/>
<path d="M68.5201 26.4472L85.0995 43.0936L81.0367 47.1398L64.4574 30.4934L68.5201 26.4472Z" fill="#D46363"/>
<path d="M55.3347 21.3359L42.973 8.92404L47.0357 4.87786L59.3976 17.2898L55.3347 21.3359Z" fill="#D56363"/>
<path d="M26.4225 17.2629L42.9636 0.789289L47.0357 4.87786L30.4946 21.3515L26.4225 17.2629Z" fill="#D56363"/>
<path d="M21.2082 30.6L8.87495 42.8829L4.80283 38.7943L17.1361 26.5114L21.2082 30.6Z" fill="#D46363"/>
<path d="M17.3194 59.4869L0.740089 42.8405L4.80283 38.7943L21.3822 55.4407L17.3194 59.4869Z" fill="#D46363"/>
<path d="M43.0682 45.6531C44.4934 45.6377 45.6289 44.4698 45.6045 43.0445C45.58 41.6192 44.4048 40.4762 42.9796 40.4916C41.5544 40.5069 40.4189 41.6749 40.4433 43.1002C40.4678 44.5255 41.643 45.6685 43.0682 45.6531Z" fill="#D46363"/>
</g>
<defs>
<clipPath id="clip0_15_371">
<rect width="60" height="60" fill="white" transform="translate(0.573608 43) rotate(-45)"/>
</clipPath>
</defs>
</svg>
