<svg width="46" height="46" viewBox="0 0 46 46" fill="none" xmlns="http://www.w3.org/2000/svg">
<g clip-path="url(#clip0_32_180)">
<path d="M27.4023 23C27.4023 25.4314 25.4314 27.4023 23 27.4023C20.5686 27.4023 18.5977 25.4314 18.5977 23C18.5977 20.5686 20.5686 18.5977 23 18.5977C25.4314 18.5977 27.4023 20.5686 27.4023 23Z" fill="white"/>
<path d="M33.2955 15.2109C33.0839 14.6375 32.7463 14.1184 32.3076 13.6924C31.8815 13.2537 31.3628 12.916 30.789 12.7044C30.3237 12.5237 29.6246 12.3085 28.3369 12.2499C26.944 12.1864 26.5264 12.1727 23 12.1727C19.4733 12.1727 19.0556 12.1861 17.6631 12.2496C16.3754 12.3085 15.676 12.5237 15.211 12.7044C14.6372 12.916 14.1181 13.2537 13.6924 13.6924C13.2537 14.1184 12.9161 14.6371 12.7041 15.2109C12.5234 15.6763 12.3082 16.3757 12.2496 17.6634C12.1861 19.056 12.1724 19.4736 12.1724 23.0003C12.1724 26.5267 12.1861 26.9443 12.2496 28.3372C12.3082 29.6249 12.5234 30.324 12.7041 30.7893C12.9161 31.3631 13.2534 31.8819 13.692 32.3079C14.1181 32.7466 14.6368 33.0842 15.2106 33.2958C15.676 33.4769 16.3754 33.6921 17.6631 33.7507C19.0556 33.8142 19.4729 33.8275 22.9996 33.8275C26.5267 33.8275 26.9444 33.8142 28.3366 33.7507C29.6242 33.6921 30.3237 33.4769 30.789 33.2958C31.9409 32.8515 32.8512 31.9412 33.2955 30.7893C33.4763 30.324 33.6914 29.6249 33.7504 28.3372C33.8139 26.9443 33.8272 26.5267 33.8272 23.0003C33.8272 19.4736 33.8139 19.056 33.7504 17.6634C33.6918 16.3757 33.4766 15.6763 33.2955 15.2109ZM23 29.7818C19.2543 29.7818 16.2178 26.7457 16.2178 23C16.2178 19.2542 19.2543 16.2182 23 16.2182C26.7454 16.2182 29.7818 19.2542 29.7818 23C29.7818 26.7457 26.7454 29.7818 23 29.7818ZM30.0499 17.5349C29.1747 17.5349 28.465 16.8253 28.465 15.95C28.465 15.0748 29.1747 14.3651 30.0499 14.3651C30.9252 14.3651 31.6348 15.0748 31.6348 15.95C31.6345 16.8253 30.9252 17.5349 30.0499 17.5349Z" fill="white"/>
<path d="M23 0C10.2994 0 0 10.2994 0 23C0 35.7006 10.2994 46 23 46C35.7006 46 46 35.7006 46 23C46 10.2994 35.7006 0 23 0ZM36.1274 28.445C36.0635 29.8509 35.8399 30.8108 35.5135 31.651C34.8274 33.425 33.425 34.8274 31.651 35.5135C30.8111 35.8399 29.8509 36.0631 28.4454 36.1274C27.037 36.1916 26.5871 36.207 23.0004 36.207C19.4133 36.207 18.9637 36.1916 17.555 36.1274C16.1494 36.0631 15.1892 35.8399 14.3494 35.5135C13.4678 35.1819 12.6697 34.6621 12.0099 33.9901C11.3382 33.3306 10.8185 32.5322 10.4868 31.651C10.1604 30.8111 9.93686 29.8509 9.87299 28.4454C9.80806 27.0367 9.79297 26.5867 9.79297 23C9.79297 19.4133 9.80806 18.9633 9.87263 17.555C9.93651 16.1491 10.1597 15.1892 10.4861 14.349C10.8177 13.4678 11.3379 12.6694 12.0099 12.0099C12.6694 11.3379 13.4678 10.8181 14.349 10.4865C15.1892 10.1601 16.1491 9.93686 17.555 9.87263C18.9633 9.80841 19.4133 9.79297 23 9.79297C26.5867 9.79297 27.0367 9.80841 28.445 9.87299C29.8509 9.93686 30.8108 10.1601 31.651 10.4861C32.5322 10.8177 33.3306 11.3379 33.9904 12.0099C34.6621 12.6697 35.1823 13.4678 35.5135 14.349C35.8403 15.1892 36.0635 16.1491 36.1277 17.555C36.1919 18.9633 36.207 19.4133 36.207 23C36.207 26.5867 36.1919 27.0367 36.1274 28.445Z" fill="white"/>
</g>
<defs>
<clipPath id="clip0_32_180">
<rect width="46" height="46" fill="white"/>
</clipPath>
</defs>
</svg>
