<svg width="60" height="60" viewBox="0 0 60 60" fill="none" xmlns="http://www.w3.org/2000/svg">
<g clip-path="url(#clip0_31_47)">
<path d="M54.0308 28.3492L54.0408 23.4031L36.6344 23.3675L36.6244 28.3136L54.0308 28.3492Z" fill="#FF9100"/>
<path d="M54.0142 36.5928L54.0242 31.6467L36.6178 31.6111L36.6079 36.5572L54.0142 36.5928Z" fill="#FF9100"/>
<path d="M23.3138 28.2865L23.3238 23.3404L5.91746 23.3048L5.90747 28.2509L23.3138 28.2865Z" fill="#FF9100"/>
<path d="M23.2971 36.5301L23.307 31.584L5.90067 31.5484L5.89069 36.4945L23.2971 36.5301Z" fill="#FF9100"/>
<path d="M28.4166 36.5423L23.5019 36.5304L23.4602 54.048L28.3749 54.0598L28.4166 36.5423Z" fill="#FF9100"/>
<path d="M36.6079 36.562L31.6931 36.5502L31.6514 54.0677L36.5661 54.0796L36.6079 36.562Z" fill="#FF9100"/>
<path d="M28.2738 5.83455L23.359 5.82269L23.3173 23.3403L28.232 23.3521L28.2738 5.83455Z" fill="#FF9100"/>
<path d="M36.465 5.85433L31.5503 5.84247L31.5086 23.36L36.4233 23.3719L36.465 5.85433Z" fill="#FF9100"/>
<path d="M5.89075 36.4944L5.85538 54.0121L0.121521 54.0002L0.156891 36.4827L5.89075 36.4944Z" fill="#D46363"/>
<path d="M23.4549 59.8185L0.109863 59.7707L0.121515 54.0002L23.4665 54.0479L23.4549 59.8185Z" fill="#D46363"/>
<path d="M36.5741 54.0173L53.9806 54.0529L53.9688 59.8233L36.5625 59.7878L36.5741 54.0173Z" fill="#D46363"/>
<path d="M59.7501 36.3409L59.7027 59.835L53.9688 59.8233L54.0162 36.3292L59.7501 36.3409Z" fill="#D46363"/>
<path d="M54.0408 23.4031L54.0762 5.88556L59.8101 5.89729L59.7747 23.415L54.0408 23.4031Z" fill="#D56363"/>
<path d="M36.4768 0.0790405L59.8217 0.126784L59.8101 5.89728L36.4651 5.84955L36.4768 0.0790405Z" fill="#D56363"/>
<path d="M23.359 5.82275L5.95273 5.78717L5.96439 0.0166626L23.3707 0.0522591L23.359 5.82275Z" fill="#D46363"/>
<path d="M0.183105 23.4991L0.230546 0.00488281L5.9644 0.0166087L5.91697 23.5108L0.183105 23.4991Z" fill="#D46363"/>
<path d="M28.1721 31.9243C29.1908 32.9212 30.8196 32.8982 31.8101 31.8731C32.8007 30.8479 32.7779 29.2087 31.7593 28.2118C30.7406 27.2149 29.1118 27.2379 28.1213 28.263C27.1307 29.2882 27.1535 30.9274 28.1721 31.9243Z" fill="#D46363"/>
</g>
<defs>
<clipPath id="clip0_31_47">
<rect width="60" height="60" fill="white"/>
</clipPath>
</defs>
</svg>
