<svg width="40" height="40" viewBox="0 0 40 40" fill="none" xmlns="http://www.w3.org/2000/svg">
<path d="M20.2198 9.54929C26.9597 9.61542 31.182 9.19607 31.7523 16.6666H39.9712C39.9712 5.09361 29.8781 3.53369 20.0058 3.53369C10.1329 3.53369 0.0404663 5.09361 0.0404663 16.6666H8.1956C8.82657 9.0537 13.5359 9.48394 20.2198 9.54929Z" fill="white"/>
<path d="M4.11647 20.387C6.1183 20.387 7.78402 20.5068 8.15436 18.5377C8.20415 18.27 8.23294 17.9666 8.23294 17.6157H8.13802H0C0 20.5449 1.84311 20.387 4.11647 20.387Z" fill="white"/>
<path d="M31.8052 17.6157H31.7281C31.7281 17.9689 31.7585 18.2731 31.8153 18.5377C32.2059 20.3536 33.8692 20.2407 35.8641 20.2407C38.1483 20.2407 40 20.3909 40 17.6157H31.8052Z" fill="white"/>
<path d="M27.7899 15.6209V14.457C27.7899 13.9365 27.19 13.9038 26.4493 13.9038H25.2395C24.4996 13.9038 23.8998 13.9365 23.8998 14.457V15.4598V16.2378H15.3416V15.4598V14.457C15.3416 13.9365 14.7418 13.9038 14.0019 13.9038H12.7913C12.0514 13.9038 11.4516 13.9365 11.4516 14.457V15.6209V16.637C9.50188 18.6629 3.12217 27.2872 2.89032 28.3313L2.89343 35.2984C2.89343 35.9418 3.41703 36.4654 4.06045 36.4654H35.181C35.8244 36.4654 36.348 35.9418 36.348 35.2984V28.2963C36.1185 27.2825 29.7403 18.6621 27.7899 16.6362V15.6209ZM14.92 29.2688C14.2937 29.2688 13.7856 28.7615 13.7856 28.1344C13.7856 27.5074 14.2937 27.0001 14.92 27.0001C15.5463 27.0001 16.0543 27.5074 16.0543 28.1344C16.0543 28.7615 15.5463 29.2688 14.92 29.2688ZM14.92 25.3787C14.2937 25.3787 13.7856 24.8715 13.7856 24.2444C13.7856 23.6173 14.2937 23.11 14.92 23.11C15.5463 23.11 16.0543 23.6173 16.0543 24.2444C16.0543 24.8715 15.5463 25.3787 14.92 25.3787ZM14.92 21.4894C14.2937 21.4894 13.7856 20.9822 13.7856 20.3551C13.7856 19.7288 14.2937 19.2208 14.92 19.2208C15.5463 19.2208 16.0543 19.7288 16.0543 20.3551C16.0543 20.9822 15.5463 21.4894 14.92 21.4894ZM19.588 29.2688C18.9617 29.2688 18.4537 28.7615 18.4537 28.1344C18.4537 27.5074 18.9617 27.0001 19.588 27.0001C20.2151 27.0001 20.7224 27.5074 20.7224 28.1344C20.7224 28.7615 20.2151 29.2688 19.588 29.2688ZM19.588 25.3787C18.9617 25.3787 18.4537 24.8715 18.4537 24.2444C18.4537 23.6173 18.9617 23.11 19.588 23.11C20.2151 23.11 20.7224 23.6173 20.7224 24.2444C20.7224 24.8715 20.2151 25.3787 19.588 25.3787ZM19.588 21.4894C18.9617 21.4894 18.4537 20.9822 18.4537 20.3551C18.4537 19.7288 18.9617 19.2208 19.588 19.2208C20.2151 19.2208 20.7224 19.7288 20.7224 20.3551C20.7224 20.9822 20.2151 21.4894 19.588 21.4894ZM24.2561 29.2688C23.629 29.2688 23.1218 28.7615 23.1218 28.1344C23.1218 27.5074 23.629 27.0001 24.2561 27.0001C24.8832 27.0001 25.3905 27.5074 25.3905 28.1344C25.3905 28.7615 24.8832 29.2688 24.2561 29.2688ZM24.2561 25.3787C23.629 25.3787 23.1218 24.8715 23.1218 24.2444C23.1218 23.6173 23.629 23.11 24.2561 23.11C24.8832 23.11 25.3905 23.6173 25.3905 24.2444C25.3905 24.8715 24.8832 25.3787 24.2561 25.3787ZM24.2561 21.4894C23.629 21.4894 23.1218 20.9822 23.1218 20.3551C23.1218 19.7288 23.629 19.2208 24.2561 19.2208C24.8832 19.2208 25.3905 19.7288 25.3905 20.3551C25.3905 20.9822 24.8832 21.4894 24.2561 21.4894Z" fill="white"/>
</svg>
